<?xml version="1.0" encoding="UTF-8"?>
<svg version="1.1" xmlns="http://www.w3.org/2000/svg" width="1254" height="1254">
<path d="M0 0 C413.82 0 827.64 0 1254 0 C1254 413.82 1254 827.64 1254 1254 C840.18 1254 426.36 1254 0 1254 C0 840.18 0 426.36 0 0 Z " fill="#7A52B8" transform="translate(0,0)"/>
<path d="M0 0 C1.88729074 -0.00302641 3.77458024 -0.00691834 5.66186762 -0.01159257 C10.80955882 -0.02181783 15.95717995 -0.01970481 21.10487676 -0.01541197 C26.67142173 -0.01293481 32.23795027 -0.02197106 37.80448914 -0.02944946 C48.69418678 -0.04217018 59.58385973 -0.04399351 70.47356355 -0.0416492 C79.32700841 -0.03986326 88.1804458 -0.04162159 97.03388977 -0.04587364 C98.92685511 -0.04676643 98.92685511 -0.04676643 100.85806218 -0.04767724 C103.4220622 -0.04888904 105.98606222 -0.05010317 108.55006224 -0.05131962 C125.75291656 -0.05910096 142.95576731 -0.06303003 160.15862274 -0.05900288 C160.83042136 -0.0588465 161.50221999 -0.05869012 162.19437614 -0.05852901 C165.59885733 -0.0577233 169.00333851 -0.05687753 172.40781969 -0.05601571 C173.08389006 -0.05584462 173.75996043 -0.05567353 174.45651778 -0.05549726 C175.82369267 -0.0551506 177.19086756 -0.05480207 178.55804244 -0.05445167 C199.83489462 -0.04909359 221.11170536 -0.05703081 242.3885498 -0.07548523 C266.32513855 -0.09622254 290.26169812 -0.10689375 314.19829893 -0.10290974 C326.8607552 -0.10099904 339.52317371 -0.10347273 352.18562317 -0.11762428 C362.96290341 -0.1295476 373.74012263 -0.13093211 384.51740372 -0.11883412 C390.0119289 -0.11295272 395.50634252 -0.11182571 401.00086021 -0.12383652 C406.03796909 -0.13471924 411.07487358 -0.13156357 416.11197299 -0.11757483 C417.92671884 -0.11493454 419.74148084 -0.11727328 421.55621082 -0.1253107 C435.84932801 -0.18418302 449.03559063 1.28846591 462.51013184 6.44819641 C463.30604736 6.74862854 464.10196289 7.04906067 464.92199707 7.3585968 C493.76173283 18.61249228 514.50516079 41.41484544 526.94763184 69.26069641 C528.47977006 72.88346196 529.76554448 76.51081211 530.94763184 80.26069641 C531.21841553 81.10390442 531.48919922 81.94711243 531.76818848 82.81587219 C534.82443882 93.93666751 534.27810959 105.13407668 534.13513184 116.57319641 C534.12005454 118.68191079 534.10637153 120.79063562 534.09411621 122.89936829 C534.06135953 128.02007315 534.00974591 133.14026696 533.94763184 138.26069641 C546.24410058 130.90223851 558.53584126 123.53858281 570.75305176 116.04902649 C577.1768562 112.11309216 583.63296334 108.23270974 590.09899902 104.36665344 C593.32138049 102.43884203 596.54055166 100.50568117 599.76013184 98.57319641 C600.91246131 97.88176637 602.06480489 97.19035983 603.21716309 96.49897766 C603.80698975 96.14480774 604.39681641 95.79063782 605.0045166 95.42573547 C606.40248656 94.5875507 607.80154447 93.75117948 609.20129395 92.91596985 C614.73203127 89.61064731 620.22403896 86.24713104 625.70202637 82.85517883 C635.69815474 76.67027566 645.72247469 70.53139218 655.81289673 64.50135803 C657.53215139 63.47242304 659.24763172 62.43718978 660.9630127 61.40180969 C671.86038619 54.91790146 682.09431947 50.34074056 694.94763184 52.88569641 C703.57502196 55.33841368 711.89074018 62.13683915 716.45544434 69.78804016 C719.58116137 75.86979245 721.07183313 80.50319966 721.07626629 87.37120533 C721.08110296 89.26293499 721.08110296 89.26293499 721.08603734 91.19288141 C721.08456615 92.59510992 721.08299843 93.99733834 721.0813446 95.39956665 C721.08321234 96.88708354 721.08551289 98.37459994 721.08820993 99.86211556 C721.09433904 103.95553761 721.09419303 108.04893927 721.09301555 112.14236486 C721.09281182 116.55487915 721.09832764 120.96738684 721.10307312 125.37989807 C721.11138641 134.02716914 721.11412827 142.67443339 721.1146855 151.32170812 C721.11516035 158.34958647 721.11721358 165.37746256 721.12038612 172.40534019 C721.12919469 192.32309686 721.1338052 212.24084812 721.13305565 232.15860675 C721.13299572 233.76991383 721.13299572 233.76991383 721.13293457 235.41377258 C721.13287325 237.02704321 721.13287325 237.02704321 721.13281069 238.67290517 C721.1324042 256.10491978 721.14197392 273.5369128 721.15607294 290.96892116 C721.17042972 308.86056948 721.1773435 326.75220725 721.17647916 344.64386147 C721.17614694 354.69162323 721.17890494 364.73936234 721.18965721 374.78711891 C721.19875305 383.34193406 721.20094503 391.89671631 721.19414779 400.45153419 C721.1908779 404.81690162 721.19084279 409.1822059 721.19950104 413.54756737 C721.20734629 417.54410949 721.20595487 421.54053816 721.19721691 425.53707745 C721.19567755 426.98256462 721.19751444 428.42806017 721.20307698 429.87353746 C721.24700911 442.09990578 719.79468756 451.49042136 711.57263184 461.01069641 C702.38471258 468.88605577 694.97125196 471.91994542 682.67028809 471.59272766 C671.68674712 470.6130834 662.90603401 464.50288043 653.69372559 458.91255188 C648.8006755 455.96923957 643.86300564 453.10164462 638.93222046 450.22218323 C628.43385802 444.08838985 617.96393584 437.9075601 607.51013184 431.69819641 C599.87728571 427.16452595 592.22816103 422.67324037 584.50231934 418.29975891 C578.76670256 415.03143751 573.10479198 411.63513748 567.42687988 408.26802063 C560.35356822 404.07800792 553.24949568 399.94434232 546.11291504 395.86299133 C545.38805908 395.44638245 544.66320312 395.02977356 543.91638184 394.60054016 C543.29183105 394.24338928 542.66728027 393.8862384 542.02380371 393.51826477 C539.27288156 391.85199008 536.61472768 390.05729495 533.94763184 388.26069641 C533.96334229 389.48474182 533.97905273 390.70878723 533.99523926 391.96992493 C534.05021356 396.58264892 534.08422329 401.19534501 534.11242676 405.80830383 C534.1273616 407.79142655 534.14771691 409.77451714 534.1739502 411.75752258 C534.59441384 444.39704386 524.90626966 471.59045318 501.94763184 495.26069641 C490.07418588 507.33917832 476.68793965 514.52011356 460.94763184 520.26069641 C459.42660325 520.84352045 457.9057267 521.42674173 456.38513184 522.01069641 C455.25075684 522.42319641 454.11638184 522.83569641 452.94763184 523.26069641 C452.04013184 523.63194641 451.13263184 524.00319641 450.19763184 524.38569641 C439.37168961 527.30037316 427.42603117 526.40964988 416.28967285 526.40786743 C414.40853551 526.41117221 412.52739888 526.41489906 410.64626312 526.41900891 C405.50146729 526.42896659 400.35668311 526.43273556 395.21187901 526.43539822 C389.65336827 526.4393197 384.0948666 526.44889642 378.53636169 526.45761108 C365.12773136 526.47731989 351.71910033 526.48743295 338.31045914 526.49633887 C331.98720501 526.50072948 325.66395171 526.50609414 319.34069824 526.51132774 C298.30783259 526.52833168 277.27496727 526.54285029 256.24209595 526.55007648 C254.88376701 526.55055123 253.52543807 526.55102712 252.16710913 526.55150415 C251.49355009 526.55174052 250.81999106 526.5519769 250.12602114 526.55222044 C246.71385621 526.55342155 243.30169129 526.55463703 239.88952637 526.55586243 C239.21239307 526.55610258 238.53525978 526.55634273 237.83760729 526.55659015 C215.89224666 526.56447992 193.94694013 526.58790932 172.00160311 526.62041837 C148.76420784 526.65477821 125.52684289 526.67443206 102.28941822 526.67772073 C89.63623988 526.67988187 76.98314115 526.68857309 64.32998657 526.7141819 C53.55460003 526.73594092 42.77931245 526.74391361 32.00390643 526.73421512 C26.51279539 526.729686 21.02188834 526.73147569 15.53080559 526.75097656 C10.49080379 526.76871996 5.45115311 526.7675208 0.411147 526.75207927 C-1.3990713 526.7497201 -3.20931464 526.75393742 -5.01949489 526.76590792 C-20.96101802 526.86468359 -37.53907226 525.36007955 -52.05236816 518.26069641 C-53.23572754 517.72960266 -54.41908691 517.19850891 -55.63830566 516.65132141 C-83.47493872 503.82339569 -103.03735397 481.68804581 -114.05236816 453.26069641 C-118.85655716 439.20785709 -120.20338886 425.74733868 -120.19281006 410.94818115 C-120.19578118 409.63672766 -120.1987523 408.32527417 -120.20181346 406.97407967 C-120.20982313 403.35818285 -120.21166963 399.74230594 -120.21241093 396.12640131 C-120.21427206 392.21687126 -120.2218246 388.3073513 -120.22854614 384.39782715 C-120.24208664 375.86036147 -120.24814738 367.32290052 -120.2525568 358.7854259 C-120.25532628 353.44737382 -120.25956488 348.10932353 -120.26406097 342.77127266 C-120.27624765 327.97065946 -120.2865484 313.17004769 -120.28993607 298.36942959 C-120.29015563 297.42348653 -120.2903752 296.47754347 -120.29060142 295.50293547 C-120.2908197 294.55482603 -120.29103797 293.60671659 -120.29126287 292.62987655 C-120.29170632 290.70888356 -120.29215288 288.78789057 -120.29260254 286.86689758 C-120.29282397 285.91403392 -120.2930454 284.96117026 -120.29327354 283.97943193 C-120.2972192 268.54946527 -120.31466885 253.11954589 -120.33796206 237.68959748 C-120.36172355 221.82043279 -120.37414008 205.95129179 -120.37530398 190.08210903 C-120.37621801 181.18322709 -120.38190139 172.28440679 -120.4001236 163.38554192 C-120.41558944 155.806477 -120.42060701 148.2274928 -120.41238549 140.64841508 C-120.40850192 136.78804572 -120.40929513 132.9278386 -120.42344284 129.06748962 C-120.48596542 110.97363879 -120.42441681 93.43476463 -114.36486816 76.13569641 C-114.11068115 75.39690247 -113.85649414 74.65810852 -113.59460449 73.89692688 C-103.71356394 46.31518962 -82.69469053 23.16286434 -56.48205566 10.26850891 C-52.04966173 8.20084534 -47.54834716 6.42272758 -42.92736816 4.82319641 C-42.26060059 4.5881842 -41.59383301 4.353172 -40.90686035 4.11103821 C-27.68254226 -0.14008549 -13.73076446 -0.03150912 0 0 Z " fill="#764FB4" transform="translate(331.0523681640625,416.7393035888672)"/>
<path d="M0 0 C1.88729074 -0.00302641 3.77458024 -0.00691834 5.66186762 -0.01159257 C10.80955882 -0.02181783 15.95717995 -0.01970481 21.10487676 -0.01541197 C26.67142173 -0.01293481 32.23795027 -0.02197106 37.80448914 -0.02944946 C48.69418678 -0.04217018 59.58385973 -0.04399351 70.47356355 -0.0416492 C79.32700841 -0.03986326 88.1804458 -0.04162159 97.03388977 -0.04587364 C98.92685511 -0.04676643 98.92685511 -0.04676643 100.85806218 -0.04767724 C103.4220622 -0.04888904 105.98606222 -0.05010317 108.55006224 -0.05131962 C125.75291656 -0.05910096 142.95576731 -0.06303003 160.15862274 -0.05900288 C160.83042136 -0.0588465 161.50221999 -0.05869012 162.19437614 -0.05852901 C165.59885733 -0.0577233 169.00333851 -0.05687753 172.40781969 -0.05601571 C173.08389006 -0.05584462 173.75996043 -0.05567353 174.45651778 -0.05549726 C175.82369267 -0.0551506 177.19086756 -0.05480207 178.55804244 -0.05445167 C199.83489462 -0.04909359 221.11170536 -0.05703081 242.3885498 -0.07548523 C266.32513855 -0.09622254 290.26169812 -0.10689375 314.19829893 -0.10290974 C326.8607552 -0.10099904 339.52317371 -0.10347273 352.18562317 -0.11762428 C362.96290341 -0.1295476 373.74012263 -0.13093211 384.51740372 -0.11883412 C390.0119289 -0.11295272 395.50634252 -0.11182571 401.00086021 -0.12383652 C406.03796909 -0.13471924 411.07487358 -0.13156357 416.11197299 -0.11757483 C417.92671884 -0.11493454 419.74148084 -0.11727328 421.55621082 -0.1253107 C435.84932801 -0.18418302 449.03559063 1.28846591 462.51013184 6.44819641 C463.30604736 6.74862854 464.10196289 7.04906067 464.92199707 7.3585968 C493.76173283 18.61249228 514.50516079 41.41484544 526.94763184 69.26069641 C528.47977006 72.88346196 529.76554448 76.51081211 530.94763184 80.26069641 C531.21841553 81.10390442 531.48919922 81.94711243 531.76818848 82.81587219 C534.82443882 93.93666751 534.27810959 105.13407668 534.13513184 116.57319641 C534.12005454 118.68191079 534.10637153 120.79063562 534.09411621 122.89936829 C534.06135953 128.02007315 534.00974591 133.14026696 533.94763184 138.26069641 C546.24410058 130.90223851 558.53584126 123.53858281 570.75305176 116.04902649 C577.1768562 112.11309216 583.63296334 108.23270974 590.09899902 104.36665344 C593.32138049 102.43884203 596.54055166 100.50568117 599.76013184 98.57319641 C600.91246131 97.88176637 602.06480489 97.19035983 603.21716309 96.49897766 C603.80698975 96.14480774 604.39681641 95.79063782 605.0045166 95.42573547 C606.40248656 94.5875507 607.80154447 93.75117948 609.20129395 92.91596985 C614.73203127 89.61064731 620.22403896 86.24713104 625.70202637 82.85517883 C635.69815474 76.67027566 645.72247469 70.53139218 655.81289673 64.50135803 C657.53215139 63.47242304 659.24763172 62.43718978 660.9630127 61.40180969 C671.86038619 54.91790146 682.09431947 50.34074056 694.94763184 52.88569641 C703.57502196 55.33841368 711.89074018 62.13683915 716.45544434 69.78804016 C719.58116137 75.86979245 721.07183313 80.50319966 721.07626629 87.37120533 C721.08110296 89.26293499 721.08110296 89.26293499 721.08603734 91.19288141 C721.08456615 92.59510992 721.08299843 93.99733834 721.0813446 95.39956665 C721.08321234 96.88708354 721.08551289 98.37459994 721.08820993 99.86211556 C721.09433904 103.95553761 721.09419303 108.04893927 721.09301555 112.14236486 C721.09281182 116.55487915 721.09832764 120.96738684 721.10307312 125.37989807 C721.11138641 134.02716914 721.11412827 142.67443339 721.1146855 151.32170812 C721.11516035 158.34958647 721.11721358 165.37746256 721.12038612 172.40534019 C721.12919469 192.32309686 721.1338052 212.24084812 721.13305565 232.15860675 C721.13299572 233.76991383 721.13299572 233.76991383 721.13293457 235.41377258 C721.13287325 237.02704321 721.13287325 237.02704321 721.13281069 238.67290517 C721.1324042 256.10491978 721.14197392 273.5369128 721.15607294 290.96892116 C721.17042972 308.86056948 721.1773435 326.75220725 721.17647916 344.64386147 C721.17614694 354.69162323 721.17890494 364.73936234 721.18965721 374.78711891 C721.19875305 383.34193406 721.20094503 391.89671631 721.19414779 400.45153419 C721.1908779 404.81690162 721.19084279 409.1822059 721.19950104 413.54756737 C721.20734629 417.54410949 721.20595487 421.54053816 721.19721691 425.53707745 C721.19567755 426.98256462 721.19751444 428.42806017 721.20307698 429.87353746 C721.24700911 442.09990578 719.79468756 451.49042136 711.57263184 461.01069641 C702.38471258 468.88605577 694.97125196 471.91994542 682.67028809 471.59272766 C671.68674712 470.6130834 662.90603401 464.50288043 653.69372559 458.91255188 C648.8006755 455.96923957 643.86300564 453.10164462 638.93222046 450.22218323 C628.43385802 444.08838985 617.96393584 437.9075601 607.51013184 431.69819641 C599.87728571 427.16452595 592.22816103 422.67324037 584.50231934 418.29975891 C578.76670256 415.03143751 573.10479198 411.63513748 567.42687988 408.26802063 C560.35356822 404.07800792 553.24949568 399.94434232 546.11291504 395.86299133 C545.38805908 395.44638245 544.66320312 395.02977356 543.91638184 394.60054016 C543.29183105 394.24338928 542.66728027 393.8862384 542.02380371 393.51826477 C539.27288156 391.85199008 536.61472768 390.05729495 533.94763184 388.26069641 C533.96334229 389.48474182 533.97905273 390.70878723 533.99523926 391.96992493 C534.05021356 396.58264892 534.08422329 401.19534501 534.11242676 405.80830383 C534.1273616 407.79142655 534.14771691 409.77451714 534.1739502 411.75752258 C534.59441384 444.39704386 524.90626966 471.59045318 501.94763184 495.26069641 C490.07418588 507.33917832 476.68793965 514.52011356 460.94763184 520.26069641 C459.42660325 520.84352045 457.9057267 521.42674173 456.38513184 522.01069641 C455.25075684 522.42319641 454.11638184 522.83569641 452.94763184 523.26069641 C452.04013184 523.63194641 451.13263184 524.00319641 450.19763184 524.38569641 C439.37168961 527.30037316 427.42603117 526.40964988 416.28967285 526.40786743 C414.40853551 526.41117221 412.52739888 526.41489906 410.64626312 526.41900891 C405.50146729 526.42896659 400.35668311 526.43273556 395.21187901 526.43539822 C389.65336827 526.4393197 384.0948666 526.44889642 378.53636169 526.45761108 C365.12773136 526.47731989 351.71910033 526.48743295 338.31045914 526.49633887 C331.98720501 526.50072948 325.66395171 526.50609414 319.34069824 526.51132774 C298.30783259 526.52833168 277.27496727 526.54285029 256.24209595 526.55007648 C254.88376701 526.55055123 253.52543807 526.55102712 252.16710913 526.55150415 C251.49355009 526.55174052 250.81999106 526.5519769 250.12602114 526.55222044 C246.71385621 526.55342155 243.30169129 526.55463703 239.88952637 526.55586243 C239.21239307 526.55610258 238.53525978 526.55634273 237.83760729 526.55659015 C215.89224666 526.56447992 193.94694013 526.58790932 172.00160311 526.62041837 C148.76420784 526.65477821 125.52684289 526.67443206 102.28941822 526.67772073 C89.63623988 526.67988187 76.98314115 526.68857309 64.32998657 526.7141819 C53.55460003 526.73594092 42.77931245 526.74391361 32.00390643 526.73421512 C26.51279539 526.729686 21.02188834 526.73147569 15.53080559 526.75097656 C10.49080379 526.76871996 5.45115311 526.7675208 0.411147 526.75207927 C-1.3990713 526.7497201 -3.20931464 526.75393742 -5.01949489 526.76590792 C-20.96101802 526.86468359 -37.53907226 525.36007955 -52.05236816 518.26069641 C-53.23572754 517.72960266 -54.41908691 517.19850891 -55.63830566 516.65132141 C-83.47493872 503.82339569 -103.03735397 481.68804581 -114.05236816 453.26069641 C-118.85655716 439.20785709 -120.20338886 425.74733868 -120.19281006 410.94818115 C-120.19578118 409.63672766 -120.1987523 408.32527417 -120.20181346 406.97407967 C-120.20982313 403.35818285 -120.21166963 399.74230594 -120.21241093 396.12640131 C-120.21427206 392.21687126 -120.2218246 388.3073513 -120.22854614 384.39782715 C-120.24208664 375.86036147 -120.24814738 367.32290052 -120.2525568 358.7854259 C-120.25532628 353.44737382 -120.25956488 348.10932353 -120.26406097 342.77127266 C-120.27624765 327.97065946 -120.2865484 313.17004769 -120.28993607 298.36942959 C-120.29015563 297.42348653 -120.2903752 296.47754347 -120.29060142 295.50293547 C-120.2908197 294.55482603 -120.29103797 293.60671659 -120.29126287 292.62987655 C-120.29170632 290.70888356 -120.29215288 288.78789057 -120.29260254 286.86689758 C-120.29282397 285.91403392 -120.2930454 284.96117026 -120.29327354 283.97943193 C-120.2972192 268.54946527 -120.31466885 253.11954589 -120.33796206 237.68959748 C-120.36172355 221.82043279 -120.37414008 205.95129179 -120.37530398 190.08210903 C-120.37621801 181.18322709 -120.38190139 172.28440679 -120.4001236 163.38554192 C-120.41558944 155.806477 -120.42060701 148.2274928 -120.41238549 140.64841508 C-120.40850192 136.78804572 -120.40929513 132.9278386 -120.42344284 129.06748962 C-120.48596542 110.97363879 -120.42441681 93.43476463 -114.36486816 76.13569641 C-114.11068115 75.39690247 -113.85649414 74.65810852 -113.59460449 73.89692688 C-103.71356394 46.31518962 -82.69469053 23.16286434 -56.48205566 10.26850891 C-52.04966173 8.20084534 -47.54834716 6.42272758 -42.92736816 4.82319641 C-42.26060059 4.5881842 -41.59383301 4.353172 -40.90686035 4.11103821 C-27.68254226 -0.14008549 -13.73076446 -0.03150912 0 0 Z M-41.73986816 55.38569641 C-42.36506348 55.77257629 -42.99025879 56.15945618 -43.63439941 56.55805969 C-53.50451489 62.89189151 -60.31785999 71.11031028 -66.05236816 81.26069641 C-66.45197754 81.94905579 -66.85158691 82.63741516 -67.26330566 83.34663391 C-72.54868344 93.08285613 -73.49254592 103.01320431 -73.43331909 113.92366028 C-73.43678275 115.27412782 -73.44155204 116.62459252 -73.44750082 117.9750514 C-73.45994343 121.65735468 -73.4538715 125.33942261 -73.44454217 129.02172637 C-73.43772415 133.00407305 -73.44824649 136.98638068 -73.45648193 140.96871948 C-73.46979222 148.75880488 -73.46695362 156.54880336 -73.45824401 164.3388921 C-73.4514572 170.67244816 -73.45055505 177.00597992 -73.45381546 183.33953857 C-73.45427516 184.24241536 -73.45473486 185.14529214 -73.45520849 186.07552883 C-73.4561677 187.90994792 -73.45714035 189.744367 -73.45812626 191.57878608 C-73.46667223 208.76307225 -73.45685848 225.94731035 -73.44072516 243.13158864 C-73.4273227 257.86296243 -73.42965102 272.5942653 -73.44348145 287.32563782 C-73.45955128 304.45021052 -73.46584833 321.57474113 -73.45664465 338.69932032 C-73.45568905 340.52683162 -73.45474594 342.35434293 -73.45381546 344.18185425 C-73.45335263 345.08092561 -73.45288981 345.97999697 -73.45241296 346.90631291 C-73.44982728 353.22915789 -73.45418495 359.55197607 -73.46125412 365.87481689 C-73.46968492 373.58469466 -73.46735584 381.29448083 -73.45141189 389.00434816 C-73.44355039 392.93485576 -73.44040118 396.86521091 -73.45035934 400.79571724 C-73.45935099 404.39935047 -73.45430063 408.00269105 -73.43842669 411.60629803 C-73.43353036 413.51535795 -73.44323527 415.42443847 -73.45359838 417.33347654 C-73.34002054 434.08998289 -66.956906 450.25475706 -55.05236816 462.26069641 C-41.44953463 474.00090129 -26.42656978 480.43786819 -8.35660553 480.39212418 C-7.5974854 480.39417681 -6.83836528 480.39622944 -6.05624151 480.39834428 C-3.50989008 480.40400337 -0.96359293 480.40255837 1.58276367 480.40113831 C3.4258755 480.40372257 5.26898677 480.40673591 7.11209726 480.41014171 C12.17942045 480.41820786 17.24672946 480.42000107 22.3140583 480.42073917 C27.77848821 480.42259042 33.24291077 480.43013818 38.70733643 480.43687439 C50.65795224 480.45045601 62.60856469 480.45648231 74.55918694 480.46088505 C82.02255703 480.46364804 89.48592583 480.46788553 96.94929504 480.47238922 C117.6164924 480.4845822 138.28368871 480.49488111 158.95088959 480.49826431 C160.28700802 480.49848594 161.62312645 480.49870773 162.95924488 480.49892966 C164.29854959 480.4991503 165.63785431 480.49937079 166.97715902 480.49959111 C169.66393121 480.50003366 172.3507034 480.50048078 175.03747559 480.50093079 C175.70363717 480.50104018 176.36979875 480.50114957 177.05614705 480.50126227 C198.64701795 480.50489133 220.23785525 480.52080588 241.82871329 480.54412115 C264.66835927 480.56873973 287.50799072 480.5824314 310.347651 480.58363223 C322.79279577 480.58454844 335.23789654 480.5902872 347.68302917 480.60845184 C358.28195502 480.62386732 368.88082327 480.62896476 379.4797582 480.62071374 C384.88498893 480.61681225 390.29010373 480.6177124 395.69532013 480.63177109 C400.65007989 480.64453997 405.60463696 480.64328625 410.55939656 480.63118038 C412.34545912 480.62922854 414.13153619 480.6322779 415.9175784 480.64102474 C429.09052571 480.70141773 442.06312755 480.05240523 454.01013184 473.82319641 C454.99892334 473.316474 454.99892334 473.316474 456.00769043 472.79951477 C470.95543351 464.68918652 480.25558228 452.05819627 485.94763184 436.26069641 C486.46792103 434.84440838 486.46792103 434.84440838 486.99872112 433.39950848 C488.57955266 427.74150887 488.22597667 421.87373322 488.20832825 416.04751587 C488.21135108 414.69709013 488.21524123 413.3466661 488.21992081 411.99624509 C488.23019294 408.29548204 488.22802098 404.59481596 488.22374022 400.894045 C488.22127149 396.89866222 488.23028911 392.9033027 488.23777771 388.90792847 C488.25052375 381.08355702 488.25231843 373.2592199 488.24997745 365.43483982 C488.24819362 359.07259591 488.24994533 352.7103624 488.25420189 346.34811974 C488.25479708 345.44221435 488.25539227 344.53630897 488.25600549 343.60295191 C488.25721727 341.76249542 488.2584314 339.92203893 488.25964787 338.08158245 C488.27052355 320.82242395 488.26836109 303.56328499 488.26226302 286.30412539 C488.25709678 270.52786144 488.26834153 254.7516593 488.28736124 238.97540758 C488.30675261 222.7662243 488.31499318 206.55707024 488.31123799 190.3478753 C488.30932754 181.25181717 488.31179806 172.1558116 488.32595253 163.05976295 C488.33788403 155.31395709 488.3392516 147.56823611 488.32716236 139.82242904 C488.32128539 135.87359398 488.32014127 131.92491408 488.33216476 127.97608948 C488.34306366 124.35436419 488.33987309 120.73292284 488.32590308 117.11121061 C488.32202744 115.19474098 488.33277064 113.27825855 488.34419996 111.36181909 C488.23673833 94.03252295 482.41762905 80.17006582 470.94763184 67.26069641 C470.39333496 66.62389954 469.83903809 65.98710266 469.26794434 65.33100891 C459.30920147 54.60987424 444.73571043 47.79535201 430.14768744 47.07237172 C425.32517932 46.97015127 420.50258945 46.98416736 415.67926025 46.99327087 C413.80397174 46.98953201 411.92868478 46.98492954 410.05340028 46.97954023 C404.91109838 46.96732415 399.76886162 46.96756906 394.62654853 46.96992898 C389.07629379 46.9703375 383.52605984 46.95929471 377.97581482 46.94981384 C367.10602159 46.9332107 356.23625006 46.92770461 345.36644521 46.92658909 C336.53000178 46.92563833 327.6935655 46.92152663 318.85712433 46.91518784 C297.87411941 46.90044234 276.89111835 46.88813789 255.90810776 46.88918495 C255.23742832 46.88921611 254.56674889 46.88924727 253.87574583 46.88927937 C250.47665686 46.88944558 247.0775679 46.88964366 243.67847893 46.88984878 C243.003438 46.88988867 242.32839708 46.88992856 241.63290037 46.88996966 C240.26780379 46.89005054 238.90270722 46.89013413 237.53761064 46.89022045 C216.30202391 46.89144578 195.06650107 46.87643434 173.83093262 46.84907532 C149.95886422 46.81833203 126.08683745 46.80116949 102.21474385 46.80300176 C89.58019308 46.80366551 76.94571436 46.79817953 64.31118011 46.77664566 C53.55418007 46.75842909 42.79728475 46.75409054 32.04027596 46.76766451 C26.55410769 46.77419156 21.06814032 46.77432059 15.5819912 46.75695801 C10.55456492 46.74121109 5.52749856 46.74410765 0.50008097 46.76152627 C-1.31346446 46.76459256 -3.12703686 46.76097786 -4.94055048 46.74980612 C-18.25917049 46.6732284 -30.19029455 48.11143371 -41.73986816 55.38569641 Z " fill="#FCFBFC" transform="translate(331.0523681640625,416.7393035888672)"/>
<path d="M0 0 C3.61516143 1.97936439 7.1285902 4.09532376 10.61938477 6.28540039 C11.90437708 7.07472984 13.18952939 7.86379887 14.47485352 8.65258789 C17.08872566 10.2704604 19.68649605 11.91174056 22.27954102 13.56274414 C27.20567478 16.67983925 32.22083889 19.64118985 37.24438477 22.59790039 C38.17323486 23.14470459 39.10208496 23.69150879 40.05908203 24.25488281 C41.96036124 25.37304212 43.86197514 26.49063253 45.76391602 27.60766602 C59.85660318 35.88784267 73.90816173 44.2345824 87.91479492 52.65942383 C91.9091579 55.0608011 95.90590713 57.45819573 99.90258789 59.85571289 C103.11440606 61.78241377 106.32588094 63.70968602 109.53735352 65.63696289 C113.24709587 67.86292418 116.95782165 70.08721906 120.67016602 72.30883789 C124.70584726 74.72449312 128.73823129 77.14556732 132.76831055 79.57055664 C134.8701504 80.83475626 136.97272858 82.09768525 139.07592773 83.35961914 C142.21770606 85.24533658 145.35639732 87.13611702 148.49349976 89.02960205 C149.72633756 89.77276645 150.9600573 90.51447013 152.19473267 91.25457764 C173.33330925 103.93085043 173.33330925 103.93085043 177.93188477 114.22290039 C179.73650588 122.26166719 178.49546208 129.03372826 174.61938477 136.28540039 C168.71175954 143.80796055 159.39720378 148.1295605 151.23022461 152.77954102 C146.25569892 155.64870825 141.34943208 158.6325206 136.43188477 161.59790039 C128.3054128 166.48525711 120.16286825 171.34358321 111.99438477 176.16040039 C104.16704368 180.77618779 96.35932478 185.42211565 88.57446289 190.10913086 C84.80004261 192.3800046 81.02187907 194.64464522 77.24438477 196.91040039 C71.79757289 200.17744307 66.35163328 203.44591319 60.90844727 206.71899414 C48.89391245 213.94050168 36.85937265 221.12746498 24.80688477 228.28540039 C24.13524292 228.68445587 23.46360107 229.08351135 22.77160645 229.49465942 C18.97882351 231.74769352 15.1836559 233.99662033 11.38543701 236.24047852 C9.64863981 237.26809103 7.9144843 238.30006004 6.18041992 239.33227539 C5.12516113 239.95618164 4.06990234 240.58008789 2.98266602 241.22290039 C2.06396729 241.76817383 1.14526855 242.31344727 0.19873047 242.87524414 C-7.47769084 247.07202686 -14.85358847 247.10645813 -23.38061523 246.28540039 C-26.69130989 245.17688679 -28.87943967 243.69529218 -31.38061523 241.28540039 C-31.94135742 240.75430664 -32.50209961 240.22321289 -33.07983398 239.67602539 C-39.22524699 233.18837389 -40.83339017 226.04471326 -40.77502441 217.37355042 C-40.78111552 216.51143556 -40.78720662 215.64932071 -40.7934823 214.76108116 C-40.8100456 211.89087734 -40.80534608 209.02112041 -40.80053711 206.15087891 C-40.80788124 204.08550559 -40.81646847 202.02013638 -40.82620239 199.95477295 C-40.84838904 194.35767699 -40.85135055 188.76072838 -40.84945488 183.16359448 C-40.84933506 178.48664037 -40.85790357 173.80971735 -40.8662324 169.13277191 C-40.88545565 158.09760803 -40.88835395 147.06251979 -40.8815918 136.02734375 C-40.87494924 124.65171235 -40.89782672 113.27640506 -40.93490553 101.90083939 C-40.96561178 92.12480317 -40.97696161 82.34887117 -40.97306871 72.5727877 C-40.97100246 66.73802195 -40.97646193 60.90350852 -41.0009613 55.06878853 C-41.02324137 49.58159325 -41.02133972 44.09492485 -41.00103378 38.60772705 C-40.99762619 36.59741239 -41.00270196 34.58706216 -41.01701736 32.57679558 C-41.14791479 12.82822697 -41.14791479 12.82822697 -33.31811523 3.94555664 C-32.67874023 3.41833008 -32.03936523 2.89110352 -31.38061523 2.34790039 C-30.74124023 1.80262695 -30.10186523 1.25735352 -29.44311523 0.69555664 C-20.75614795 -5.24382819 -9.10666887 -4.54019426 0 0 Z " fill="#FCFCFC" transform="translate(479.380615234375,559.714599609375)"/>
<path d="M0 0 C0.99 0 1.98 0 3 0 C3 101.31 3 202.62 3 307 C-0.58642825 306.10339294 -2.67911042 305.17689989 -5.796875 303.33203125 C-6.74288574 302.77588135 -7.68889648 302.21973145 -8.66357422 301.64672852 C-10.19135498 300.7387854 -10.19135498 300.7387854 -11.75 299.8125 C-13.93483294 298.52593486 -16.11973053 297.2394795 -18.3046875 295.953125 C-19.97869629 294.9640918 -19.97869629 294.9640918 -21.68652344 293.95507812 C-26.73934807 290.973718 -31.80665831 288.01737909 -36.875 285.0625 C-37.85315674 284.49152588 -38.83131348 283.92055176 -39.83911133 283.33227539 C-47.3577529 278.94685993 -54.89513653 274.59446263 -62.4375 270.25 C-70.17713986 265.7916143 -77.90396925 261.31427586 -85.59594727 256.77416992 C-100.02586136 248.25829846 -114.5140066 239.84016848 -129.02490234 231.46313477 C-129.74242676 231.04862061 -130.45995117 230.63410645 -131.19921875 230.20703125 C-132.12480591 229.67299683 -132.12480591 229.67299683 -133.0690918 229.12817383 C-133.7062915 228.75587646 -134.34349121 228.3835791 -135 228 C-135.85242373 227.59957583 -136.70484747 227.19915167 -137.58310223 226.78659344 C-140 225 -140 225 -140.61523914 222.42880726 C-140.61063018 221.39179015 -140.60602121 220.35477304 -140.60127258 219.28633118 C-140.6081459 218.09581146 -140.61501923 216.90529175 -140.62210083 215.67869568 C-140.60412445 214.37102737 -140.58614807 213.06335907 -140.56762695 211.71606445 C-140.56621673 210.32647757 -140.56700795 208.93688696 -140.56983948 207.54730225 C-140.57127611 203.77248151 -140.54184757 199.99845259 -140.50696969 196.22381616 C-140.47574671 192.28004469 -140.47277868 188.33625575 -140.46684265 184.39237976 C-140.45129217 176.92307678 -140.41024772 169.45413901 -140.3600952 161.98499697 C-140.30423895 153.48211784 -140.27672465 144.9792214 -140.25161803 136.47620451 C-140.19933266 118.98392497 -140.11136733 101.49200108 -140 84 C-138.82981323 83.33581055 -138.82981323 83.33581055 -137.63598633 82.65820312 C-134.6733443 80.97514749 -131.71191575 79.28999223 -128.7512207 77.60351562 C-127.48247686 76.88134938 -126.2132882 76.15996394 -124.94360352 75.43945312 C-117.10918053 70.9928048 -109.36212991 66.43903555 -101.71059513 61.68384457 C-98.40424976 59.62991493 -95.06686134 57.63859438 -91.71484375 55.66015625 C-90.44349024 54.90825705 -89.17216995 54.15630168 -87.90087891 53.40429688 C-87.25483704 53.02265381 -86.60879517 52.64101074 -85.94317627 52.24780273 C-66.32210109 40.65225543 -46.8484015 28.82058799 -27.41674805 16.91064453 C-20.73482393 12.82185887 -14.01240425 8.80084144 -7.28125 4.79370117 C-6.47558594 4.31263916 -5.66992188 3.83157715 -4.83984375 3.3359375 C-4.12175537 2.90845215 -3.40366699 2.4809668 -2.66381836 2.04052734 C-1.03142979 1.10629301 -1.03142979 1.10629301 0 0 Z " fill="#835AC2" transform="translate(1003,526)"/>
<path d="M0 0 C0.9384375 0.40089844 1.876875 0.80179687 2.84375 1.21484375 C16.38989875 7.77863774 26.44891179 20.17295788 31.375 34.25 C32.65295802 38.49893735 33.6711312 42.56027122 34 47 C34.06316406 47.69867188 34.12632812 48.39734375 34.19140625 49.1171875 C34.915668 63.36878964 29.24302039 77.66596685 19.875 88.1875 C14.88543009 93.55429699 9.44359505 97.48262472 3 101 C2.30132812 101.40863281 1.60265625 101.81726563 0.8828125 102.23828125 C-10.56663775 108.56076884 -24.91584298 108.61242947 -37.3125 105.375 C-53.73067679 100.08716378 -64.89302917 88.92892123 -72.8125 73.875 C-78.71568715 62.22980486 -78.74041309 47.26686771 -75.09765625 34.8984375 C-68.64520385 17.86028917 -56.60760858 4.95046579 -40 -2.5625 C-27.48250752 -6.54533852 -11.87401244 -5.20303567 0 0 Z " fill="#F9F8FC" transform="translate(357,274)"/>
<path d="M0 0 C7.31591928 5.51742246 13.00955189 13.29766773 14.4375 22.5 C15.92875112 34.4797173 12.14064136 43.19840537 5.046875 52.703125 C2.4414255 55.49579243 0.24890381 57.07158441 -3.125 58.8125 C-4.51912109 59.54919922 -4.51912109 59.54919922 -5.94140625 60.30078125 C-13.65460675 63.82977164 -24.13018159 63.75769157 -32.36328125 61.8515625 C-34.61797047 60.91444478 -36.52986093 59.85108357 -38.5625 58.5 C-39.32949219 58.01402344 -40.09648437 57.52804687 -40.88671875 57.02734375 C-47.91591679 52.11271437 -51.63646797 46.05243935 -54.9375 38.25 C-57.03062516 25.69124907 -55.39398787 16.82632389 -48.07421875 6.375 C-35.75805121 -9.02850873 -15.97190547 -10.56136839 0 0 Z " fill="#ECE4F8" transform="translate(475.5625,317.5)"/>
<path d="M0 0 C0.99 0.495 0.99 0.495 2 1 C2.90734854 17.88636768 3.1467608 34.72677186 3.13072467 51.63559806 C3.12842185 55.24334951 3.13197366 58.85109654 3.13470459 62.45884705 C3.13910744 69.48691495 3.1382113 76.51497206 3.13529195 83.54304036 C3.13301952 89.2527933 3.13273329 94.96254326 3.13381577 100.67229652 C3.133969 101.48953229 3.13412223 102.30676806 3.13428011 103.14876855 C3.13459987 104.80950234 3.13492408 106.47023613 3.1352527 108.13096992 C3.13809049 123.62735632 3.13484552 139.12373675 3.12945233 154.62012217 C3.12496979 167.91235979 3.1257754 181.2045887 3.13037109 194.49682617 C3.13571943 209.97298857 3.13783274 225.44914581 3.13475883 240.925309 C3.1344403 242.57360701 3.13412593 244.22190501 3.13381577 245.87020302 C3.13366149 246.68103209 3.13350721 247.49186117 3.13334826 248.32726082 C3.13248508 254.03887102 3.13394138 259.75047794 3.13629532 265.46208763 C3.13909566 272.4084147 3.13834941 279.35473046 3.13301457 286.30105623 C3.13038322 289.84390914 3.1293632 293.38674317 3.13266373 296.92959595 C3.13618322 300.76522374 3.13198693 304.60082047 3.12698364 308.43644714 C3.13032973 310.12301801 3.13032973 310.12301801 3.13374341 311.84366101 C3.13113566 312.86852622 3.12852791 313.89339143 3.12584114 314.94931316 C3.12567879 315.83450435 3.12551644 316.71969554 3.12534916 317.63171071 C3.00530292 319.89980917 2.58545617 321.81473718 2 324 C1.85180932 326.31536932 1.75238023 328.63403811 1.68359375 330.953125 C1.66281265 331.61334656 1.64203156 332.27356812 1.62062073 332.95379639 C1.55549853 335.05243015 1.49641498 337.15118372 1.4375 339.25 C1.39427921 340.67709547 1.3506638 342.10417905 1.30664062 343.53125 C1.19985589 347.02070722 1.09848434 350.51029753 1 354 C0.67 354 0.34 354 0 354 C0 237.18 0 120.36 0 0 Z " fill="#9E77D0" transform="translate(1052,502)"/>
<path d="M0 0 C0.66 0.33 1.32 0.66 2 1 C-3.98767811 4.76368338 -8.16028249 6.25868631 -15.3125 6.125 C-16.56675781 6.10695313 -17.82101562 6.08890625 -19.11328125 6.0703125 C-20.06589844 6.04710937 -21.01851562 6.02390625 -22 6 C-22 5.34 -22 4.68 -22 4 C-20.62328125 3.94392578 -20.62328125 3.94392578 -19.21875 3.88671875 C-12.14904761 3.50798469 -6.50263223 2.75111364 0 0 Z " fill="#966AD3" transform="translate(1033,884)"/>
<path d="M0 0 C4.5009071 1.4145708 6.77201886 3.61830547 10 7 C11.86174763 8.58190248 13.74438699 10.13245772 15.64453125 11.66796875 C16.31548828 12.32732422 16.31548828 12.32732422 17 13 C17 13.66 17 14.32 17 15 C17.66 15.66 18.32 16.32 19 17 C16 17 16 17 13.984375 15.0234375 C13.24703125 14.14945312 12.5096875 13.27546875 11.75 12.375 C8.08031033 8.14074269 4.30292169 4.57050949 0 1 C0 0.67 0 0.34 0 0 Z " fill="#7350AC" transform="translate(364,277)"/>
<path d="M0 0 C0 3 0 3 -2.40625 5.48046875 C-3.43005231 6.39125392 -4.46167034 7.29331192 -5.5 8.1875 C-6.02464844 8.65091797 -6.54929687 9.11433594 -7.08984375 9.59179688 C-8.38666224 10.735355 -9.69249867 11.86867174 -11 13 C-11.99 12.34 -12.98 11.68 -14 11 C-13.24074219 10.45730469 -12.48148438 9.91460938 -11.69921875 9.35546875 C-10.70535156 8.64003906 -9.71148438 7.92460938 -8.6875 7.1875 C-7.70136719 6.47980469 -6.71523438 5.77210938 -5.69921875 5.04296875 C-3.59942813 3.45369163 -1.77965031 1.92542371 0 0 Z " fill="#956BCF" transform="translate(831,913)"/>
<path d="M0 0 C4.76414273 3.57310705 7.37082252 6.64052284 10 12 C10 12.66 10 13.32 10 14 C9.34 14 8.68 14 8 14 C6.30859375 11.69921875 6.30859375 11.69921875 4.4375 8.6875 C3.81746094 7.70136719 3.19742187 6.71523438 2.55859375 5.69921875 C1 3 1 3 0 0 Z " fill="#704BAC" transform="translate(479,319)"/>
<path d="M0 0 C0.33 0 0.66 0 1 0 C1.03738281 0.98742187 1.07476563 1.97484375 1.11328125 2.9921875 C1.17902344 4.27351562 1.24476563 5.55484375 1.3125 6.875 C1.37050781 8.15117188 1.42851563 9.42734375 1.48828125 10.7421875 C1.65714844 11.81726563 1.82601562 12.89234375 2 14 C2.99 14.66 3.98 15.32 5 16 C5 16.66 5 17.32 5 18 C2.525 17.01 2.525 17.01 0 16 C0 10.72 0 5.44 0 0 Z " fill="#8D67CB" transform="translate(863,735)"/>
<path d="M0 0 C0.66 0.33 1.32 0.66 2 1 C-0.97 3.97 -3.94 6.94 -7 10 C-7.33 9.01 -7.66 8.02 -8 7 C-5.36 4.69 -2.72 2.38 0 0 Z " fill="#643FA6" transform="translate(299,281)"/>
<path d="M0 0 C0.99 0.33 1.98 0.66 3 1 C0.36 2.98 -2.28 4.96 -5 7 C-5.33 6.01 -5.66 5.02 -6 4 C-3.1875 1.9375 -3.1875 1.9375 0 0 Z " fill="#744FAE" transform="translate(371,367)"/>
<path d="M0 0 C0.91007813 0.00902344 1.82015625 0.01804687 2.7578125 0.02734375 C3.45648437 0.03894531 4.15515625 0.05054688 4.875 0.0625 C1.83974514 2.08600324 0.68073798 2.38374018 -2.8125 2.6875 C-3.62074219 2.76226563 -4.42898438 2.83703125 -5.26171875 2.9140625 C-5.87660156 2.96304688 -6.49148438 3.01203125 -7.125 3.0625 C-7.125 2.4025 -7.125 1.7425 -7.125 1.0625 C-4.60024538 -0.19987731 -2.81299534 -0.03606404 0 0 Z " fill="#8B63CD" transform="translate(772.125,892.9375)"/>
<path d="M0 0 C0.33 0.66 0.66 1.32 1 2 C0.21654285 3.17219543 -0.57702836 4.33763668 -1.375 5.5 C-1.81585938 6.1496875 -2.25671875 6.799375 -2.7109375 7.46875 C-3.13632812 7.9740625 -3.56171875 8.479375 -4 9 C-4.66 9 -5.32 9 -6 9 C-4.47291037 5.56404834 -2.40072955 2.88087546 0 0 Z " fill="#704BAA" transform="translate(382,355)"/>
<path d="M0 0 C0.99 0.33 1.98 0.66 3 1 C0.87219421 3.34058637 -1.11562221 4.70700306 -4 6 C-4.66 5.34 -5.32 4.68 -6 4 C-3.1875 1.9375 -3.1875 1.9375 0 0 Z " fill="#8C66C4" transform="translate(606,726)"/>
<path d="M0 0 C0.66 0.66 1.32 1.32 2 2 C-0.31 3.32 -2.62 4.64 -5 6 C-5.66 5.34 -6.32 4.68 -7 4 C-4.69 2.68 -2.38 1.36 0 0 Z " fill="#8A62C5" transform="translate(543,764)"/>
<path d="M0 0 C-2.67478244 1.6627026 -4.9995144 2.99983813 -8 4 C-8.66 3.34 -9.32 2.68 -10 2 C-8.71211992 1.46987262 -7.41953322 0.9511671 -6.125 0.4375 C-5.40570312 0.14746094 -4.68640625 -0.14257812 -3.9453125 -0.44140625 C-2 -1 -2 -1 0 0 Z " fill="#A17AD6" transform="translate(1035,885)"/>
<path d="M0 0 C0.66 0 1.32 0 2 0 C0.68775452 3.93673644 -0.91910327 6.22719294 -4 9 C-2.94124926 5.59687262 -1.99097846 2.98646769 0 0 Z " fill="#6A48A6" transform="translate(230,463)"/>
<path d="M0 0 C0.53625 0.226875 1.0725 0.45375 1.625 0.6875 C-1.3576906 2.21198631 -4.193202 3.62690067 -7.375 4.6875 C-7.705 4.0275 -8.035 3.3675 -8.375 2.6875 C-2.95961538 -0.38942308 -2.95961538 -0.38942308 0 0 Z " fill="#6B46A8" transform="translate(358.375,376.3125)"/>
</svg>
